<svg width="307" height="296" viewBox="0 0 307 296" fill="none" xmlns="http://www.w3.org/2000/svg">
<path d="M179.248 147.57C179.248 147.57 176.622 150.235 171.271 150.728C171.271 145.555 172.567 140.915 172.567 140.915C172.567 140.915 174.834 140.152 174.838 140.181C174.841 140.209 179.248 147.57 179.248 147.57Z" fill="#1A2E35" stroke="#1A2E35" stroke-width="0.972" stroke-linecap="round" stroke-linejoin="round"/>
<path d="M86.4233 135.715L91.2857 128.851C91.2857 128.851 85.6542 127.567 83.2886 127.65C80.923 127.732 78.897 129.216 78.2539 129.604C77.9005 129.816 80.1936 132.53 82.725 134.249C84.8019 135.659 86.4233 135.715 86.4233 135.715Z" fill="#1A2E35" stroke="#1A2E35" stroke-width="0.972" stroke-linecap="round" stroke-linejoin="round"/>
<path d="M105.68 265.105C99.7861 259.461 96.9831 248.992 94.5188 243.064C94.098 242.052 93.5986 241.203 93.0835 240.47L81.4863 243.814L95.6798 295.486L107.145 266.359C106.657 265.98 106.168 265.573 105.68 265.105Z" fill="#FF644C" stroke="#1A2E35" stroke-width="0.972" stroke-linecap="round" stroke-linejoin="round"/>
<path d="M18.3931 230.939C16.1097 223.101 18.9115 212.631 19.7385 206.264C19.8903 205.098 19.871 204.047 19.7747 203.104L0.486328 203.279L10.1659 259.203L22.1046 237.315C20.5018 235.903 19.2264 233.8 18.3931 230.939Z" fill="#FF644C" stroke="#1A2E35" stroke-width="0.972" stroke-linecap="round" stroke-linejoin="round"/>
<path d="M172.629 134.909C171.55 165.059 169.668 188.327 167.986 197.662C165.746 210.124 160.495 216.91 153.401 226.304C146.298 235.699 126.693 259.015 122.098 264.45C117.502 269.875 111.576 270.746 105.683 265.107C99.7894 259.459 96.9833 248.992 94.5207 243.066C92.0581 237.139 86.9026 236.696 91.557 233.543C96.2025 230.392 97.9298 218.359 107.354 206.316C112.385 199.908 111.262 202.458 118.967 196.024C119.612 195.495 120.126 194.819 120.465 194.06C120.492 193.992 120.52 193.933 120.547 193.866C120.994 192.844 121.119 191.859 120.999 190.955L125.538 161.753C125.514 161.775 125.509 161.803 125.494 161.824C125.347 162.073 124.911 162.855 124.256 164.016C118.663 174.035 114.033 183.142 111.235 188.467C111.006 188.773 110.776 189.079 110.552 189.367C106.114 195.198 101.957 199.612 100.009 201.933C91.8328 211.599 91.801 209.77 80.9625 214.35C70.123 218.922 39.6295 236.188 32.9372 238.591C26.2449 240.993 20.6825 238.774 18.3948 230.935C16.1084 223.104 18.9138 212.633 19.7413 206.266C20.5689 199.898 16.3311 196.934 21.9236 196.54C21.9875 196.54 22.0587 196.53 22.1303 196.52C23.4392 196.37 24.381 195.752 25.2351 194.773C32.0534 189.406 44.7757 173.381 59.7415 169.19C59.8207 169.17 59.9086 169.148 59.9878 169.128C61.0824 168.881 62.3045 168.634 63.7168 168.378L63.7437 168.374C67.2266 167.687 73.0765 155.944 78.4172 144.081C78.5898 143.691 78.7547 143.312 78.9272 142.923C79.708 141.169 80.4796 139.418 81.2207 137.706C81.7307 136.548 82.2251 135.41 82.7056 134.302C83.5974 132.241 86.681 128.258 88.9183 128.359C100.243 128.873 111.177 132.322 130.159 128.508C143.259 125.868 160.351 126 169.323 129.714C171.403 130.567 172.71 132.653 172.629 134.909Z" fill="#CA2B26"/>
<path d="M169.32 129.711C166.937 128.727 163.971 128.001 160.67 127.506C161.287 127.709 161.876 127.925 162.433 128.155C164.514 129.015 167.923 131.326 167.842 133.579C166.758 163.734 164.864 189.783 163.185 199.113C160.94 211.58 152.43 220.443 145.33 229.839C138.229 239.234 121.745 258.579 117.149 264.013C115.109 266.426 110.865 266.809 108.42 267.251C113.38 270.351 118.213 269.037 122.095 264.446C126.692 259.012 146.297 235.701 153.398 226.306C160.498 216.911 165.742 210.127 167.987 197.661C169.666 188.33 171.547 165.063 172.631 134.908C172.712 132.655 171.401 130.571 169.32 129.711Z" fill="white"/>
<path d="M172.629 134.909C171.55 165.059 169.668 188.327 167.986 197.662C165.746 210.124 160.495 216.91 153.401 226.304C146.298 235.699 126.693 259.015 122.098 264.45C117.502 269.875 111.576 270.746 105.683 265.107C99.7894 259.459 96.9833 248.992 94.5207 243.066C92.0581 237.14 86.9026 236.696 91.557 233.543C96.2026 230.392 97.9298 218.359 107.354 206.316C112.385 199.908 111.262 202.458 118.967 196.024C119.612 195.495 120.126 194.819 120.465 194.06C120.492 193.992 120.52 193.933 120.547 193.866C120.994 192.844 121.119 191.859 120.999 190.955L125.538 161.753C125.514 161.775 125.509 161.803 125.494 161.824C125.347 162.073 124.911 162.855 124.256 164.016C118.663 174.035 114.033 183.142 111.235 188.467C111.006 188.773 110.776 189.079 110.552 189.367C106.114 195.198 101.957 199.613 100.009 201.933C91.8328 211.599 91.801 209.77 80.9625 214.35C70.123 218.922 39.6295 236.188 32.9372 238.591C26.2449 240.993 20.6825 238.774 18.3948 230.935C16.1084 223.104 18.9138 212.633 19.7414 206.266C20.5689 199.898 16.3311 196.934 21.9236 196.54C21.9875 196.54 22.0587 196.53 22.1303 196.52C22.957 196.375 23.9983 195.752 25.2351 194.773C32.0534 189.406 44.7757 173.382 59.7415 169.19C59.8207 169.17 59.9086 169.148 59.9878 169.128C61.2151 168.789 62.4642 168.538 63.7168 168.378L63.7437 168.374C67.2712 167.873 73.0942 156.005 78.4173 144.081C78.5898 143.691 78.7547 143.312 78.9272 142.923C79.708 141.169 80.4796 139.418 81.2208 137.706C81.7307 136.548 82.2251 135.41 82.7056 134.302C83.5974 132.241 85.6526 127.799 87.8899 127.901C99.2143 128.415 111.177 132.322 130.16 128.508C143.259 125.868 160.841 126.608 169.813 130.321C171.893 131.175 172.71 132.653 172.629 134.909Z" stroke="#1A2E35" stroke-width="0.972" stroke-linecap="round" stroke-linejoin="round"/>
<path d="M130.715 152.842C128.933 155.824 127.199 158.817 125.537 161.744L125.538 161.753C125.514 161.775 125.509 161.803 125.494 161.823C125.347 162.073 124.911 162.855 124.256 164.016C118.663 174.035 114.033 183.142 111.235 188.467" stroke="#1A2E35" stroke-width="0.972" stroke-linecap="round" stroke-linejoin="round"/>
<path d="M102.332 130.842C102.572 132.533 91.0837 140.463 85.001 141.329" stroke="#1A2E35" stroke-width="0.972" stroke-linecap="round" stroke-linejoin="round"/>
<path d="M92.9491 138.517C92.9491 138.517 76.7707 172.15 72.9603 174.517C69.1499 176.883 60.6928 175.067 50.9163 183.214C41.1397 191.361 35.1812 200.733 30.5649 203.514C28.7233 204.623 26.7545 205.63 25.0527 206.44" stroke="#1A2E35" stroke-width="0.972" stroke-linecap="round" stroke-linejoin="round"/>
<path d="M128.915 155.885L127.813 201.872C127.813 201.872 118.629 201.221 111.952 213.624C106.586 223.592 103.193 232.576 101.001 237.088" stroke="#1A2E35" stroke-width="0.972" stroke-linecap="round" stroke-linejoin="round"/>
<path d="M235.741 125.044C235.638 125.034 235.524 125.016 235.412 125.007C228.741 124.219 207.585 125.024 204.712 123.729C204.414 123.596 203.759 123.043 202.897 122.154C199.166 118.311 192.49 111.555 190.457 102.404C190.533 102.152 190.611 101.92 190.699 101.688C191.022 100.862 191.428 100.159 191.905 99.5516C192.022 99.4075 192.14 99.2633 192.269 99.1283C194.147 97.117 196.978 96.2908 200.219 95.6973C200.967 95.5605 201.689 95.3752 202.379 95.1628C202.675 95.0717 202.969 94.9707 203.242 94.8615C203.643 94.7089 204.034 94.5574 204.422 94.3757C204.617 94.2949 204.811 94.204 205.004 94.103C205.79 93.7384 206.54 93.3266 207.245 92.8686C207.438 92.7676 207.619 92.6475 207.8 92.5276C207.838 92.5034 207.876 92.4791 207.914 92.4548C211.909 89.7813 214.548 86.452 215.901 85.8674L215.91 85.8563L223.582 98.8385L244.547 96.9545C247.615 96.765 250.585 98.0096 252.588 100.339" fill="#C6856A"/>
<path d="M235.741 125.044C235.638 125.034 235.524 125.016 235.412 125.007C228.741 124.219 207.585 125.024 204.712 123.729C204.414 123.596 203.759 123.043 202.897 122.154C199.166 118.311 192.49 111.555 190.457 102.404C190.533 102.152 190.611 101.92 190.699 101.688C191.022 100.862 191.428 100.159 191.905 99.5516C192.022 99.4075 192.14 99.2633 192.269 99.1283C194.147 97.117 196.978 96.2908 200.219 95.6973C200.967 95.5605 201.689 95.3752 202.379 95.1628C202.675 95.0717 202.969 94.9707 203.242 94.8615C203.643 94.7089 204.034 94.5574 204.422 94.3757C204.617 94.2949 204.811 94.204 205.004 94.103C205.79 93.7384 206.54 93.3266 207.245 92.8686C207.438 92.7676 207.619 92.6475 207.8 92.5276C207.838 92.5034 207.876 92.4791 207.914 92.4548C211.909 89.7813 214.548 86.452 215.901 85.8674L215.91 85.8563L223.582 98.8385L244.547 96.9545C247.615 96.765 250.585 98.0096 252.588 100.339" stroke="#1A2E35" stroke-width="0.972" stroke-linecap="round" stroke-linejoin="round"/>
<path d="M235.741 125.044C235.638 125.034 235.524 125.016 235.412 125.007C228.741 124.219 207.585 125.024 204.712 123.729C204.414 123.596 203.759 123.043 202.897 122.154C199.166 118.311 192.49 111.555 190.457 102.404C190.533 102.152 190.611 101.92 190.699 101.688C191.022 100.862 191.428 100.159 191.905 99.5516C192.022 99.4075 192.14 99.2633 192.269 99.1283C194.147 97.117 196.978 96.2908 200.219 95.6973C200.967 95.5605 201.689 95.3752 202.379 95.1628C202.675 95.0717 202.969 94.9707 203.242 94.8615C203.643 94.7089 204.034 94.5574 204.422 94.3757C204.617 94.2949 204.811 94.204 205.004 94.103C205.79 93.7384 206.54 93.3266 207.245 92.8686C207.438 92.7676 207.619 92.6475 207.8 92.5276C207.838 92.5034 207.876 92.4791 207.914 92.4548C211.909 89.7813 214.548 86.452 215.901 85.8674L215.91 85.8563L223.582 98.8385L244.547 96.9545C247.615 96.765 250.585 98.0096 252.588 100.339" stroke="#1A2E35" stroke-width="0.972" stroke-linecap="round" stroke-linejoin="round"/>
<path d="M72.4395 54.5104C73.1343 56.4766 78.096 60.05 78.096 60.05L81.1065 53.8703L80.9915 50.7748L72.4395 54.5104Z" fill="#1A2E35" stroke="#1A2E35" stroke-width="0.972" stroke-linecap="round" stroke-linejoin="round"/>
<path d="M218.012 87.2925C217.843 88.1014 216.901 89.0708 215.209 89.9556C212.415 91.4219 208.182 96.3202 201.382 96.7886C194.572 97.2574 188.911 109.936 188.911 109.936C188.911 109.936 186.506 104.07 184.041 100.801C181.575 97.5223 178.852 96.9223 177.977 94.4533C171.11 118.673 179.25 147.211 179.25 147.211C178.231 150.304 177.945 132.48 134.067 132.69C111.665 132.792 93.1841 128.991 89.557 128.215C80.1653 126.193 78.6672 129.842 78.2549 129.606C76.8159 128.78 83.0855 112.962 87.2762 103.793C95.8432 85.0508 92.8557 83.1293 101.801 66.1989C97.6441 66.7382 90.4068 58.8586 89.3884 57.6873C83.1861 50.5408 72.7845 54.3837 72.4395 54.5103C72.5321 54.2491 74.5769 48.8556 80.7876 42.9732C82.3192 41.5153 86.081 35.7258 88.9169 31.7142C89.3966 31.0317 89.8512 30.4081 90.2635 29.8603C90.4401 29.6161 90.617 29.3969 90.7769 29.1862C90.9536 28.9586 91.122 28.7564 91.2819 28.5711C106.093 11.4046 133.326 24.8715 137.5 27.9221C140.614 30.1974 150.098 31.5289 157.369 33.206C159.86 33.7791 166.803 39.6445 170.91 42.0126L185.763 47.0942C189.878 49.1588 194.044 52.7236 196.703 56.4906C196.855 56.7013 196.981 56.895 197.09 57.0637C198.504 59.339 206.566 70.5474 207.483 71.3143L218.012 87.2925Z" fill="#FF644C"/>
<path d="M177.977 94.4532H176.83C170.735 108.819 173.714 132.595 175.248 143.093C178.532 146.202 178.83 148.487 179.248 147.209C179.248 147.209 174.668 117.501 177.977 94.4532Z" fill="white"/>
<path d="M78.0871 46.4771C78.7365 45.8622 79.7852 44.4673 80.9919 42.7623C80.9246 42.8328 80.8497 42.918 80.7893 42.9752C78.3053 45.3274 76.4945 47.5982 75.2012 49.4987C76.046 48.522 76.9979 47.5084 78.0871 46.4771Z" fill="white"/>
<path d="M220.424 86.4154C220.255 87.2246 216.9 89.0707 215.209 89.9555L204.782 74.82C204.319 74.4325 202.081 71.4406 199.775 68.2551C197.469 65.0782 195.096 61.7072 194.389 60.5694C194.279 60.4008 194.153 60.207 193.993 59.9879C191.342 56.2208 187.177 52.6561 183.062 50.5915L168.208 45.5098C164.101 43.1502 157.159 37.2848 154.667 36.7117C147.396 35.0262 137.912 33.7031 134.798 31.4278C130.658 28.3939 103.796 15.121 88.917 31.7144C89.3967 31.0318 89.8512 30.4082 90.2635 29.8605C90.4402 29.6162 90.617 29.397 90.777 29.1863C90.9536 28.9588 91.122 28.7565 91.282 28.5712C106.093 11.4047 133.326 24.8716 137.5 27.9222C140.614 30.1975 150.098 31.529 157.369 33.2061C159.86 33.7792 166.803 39.6446 170.91 42.0127L185.763 47.0943C189.878 49.1589 194.044 52.7237 196.703 56.4907C196.855 56.7014 196.981 56.8952 197.09 57.0638C198.504 59.3391 206.566 70.5476 207.484 71.3144L220.424 86.4154Z" fill="white"/>
<path d="M220.424 86.4155C220.256 87.2246 216.9 89.0708 215.209 89.9556C212.415 91.4219 208.182 96.3202 201.381 96.7886C194.572 97.2574 189.484 109.264 189.484 109.264C189.484 109.264 186.506 104.07 184.041 100.801C181.575 97.5223 178.778 96.1264 177.903 93.6571C171.035 117.877 179.25 147.21 179.25 147.21C178.231 150.303 177.945 132.479 134.067 132.69C111.665 132.791 93.1841 128.991 89.557 128.215C80.1653 126.193 78.6672 129.842 78.2549 129.606C76.8159 128.78 83.0855 112.962 87.2762 103.793C95.8432 85.0506 92.8557 83.129 101.801 66.1986C97.6441 66.7379 90.4068 58.8584 89.3884 57.687C83.1861 50.5406 72.7845 54.3835 72.4395 54.51C72.5321 54.2489 74.5769 48.8553 80.7876 42.973C82.3192 41.5151 86.081 35.7255 88.917 31.714C89.3966 31.0314 89.8512 30.4078 90.2635 29.8601C90.4401 29.6158 90.617 29.3967 90.7769 29.186C90.9536 28.9584 91.122 28.7562 91.2819 28.5708C106.093 11.4044 133.326 24.8712 137.5 27.9219C140.614 30.1971 150.098 31.5287 157.369 33.2057C159.86 33.7788 166.803 39.6443 170.91 42.0123L185.763 47.094C189.878 49.1586 194.044 52.7233 196.703 56.4903C196.855 56.701 196.981 56.8948 197.09 57.0634C198.504 59.3387 206.566 70.5472 207.483 71.3141L220.424 86.4155Z" stroke="#1A2E35" stroke-width="0.972" stroke-linecap="round" stroke-linejoin="round"/>
<path d="M166.933 32.6368V53.7116L158.541 42.8601L160.189 32.6368L166.933 30.5139" fill="#FF644C"/>
<path d="M166.933 32.6368V53.7116L158.541 42.8601L160.189 32.6368L166.933 30.5139" stroke="#1A2E35" stroke-width="0.972" stroke-linecap="round" stroke-linejoin="round"/>
<path d="M148.665 26.0206L142.585 29.9762L140.799 46.1306L152.957 41.2855L148.665 26.0206Z" fill="#FF644C" stroke="#1A2E35" stroke-width="0.972" stroke-linecap="round" stroke-linejoin="round"/>
<path d="M158.54 42.8601C158.54 42.8601 155.152 44.6336 154.918 49.6899C154.684 54.7464 155.587 64.2906 155.161 67.1919C154.918 68.8485 145.757 65.5939 145.757 65.5939" fill="#FF644C"/>
<path d="M158.54 42.8601C158.54 42.8601 155.152 44.6336 154.918 49.6899C154.684 54.7464 155.587 64.2906 155.161 67.1919C154.918 68.8485 145.757 65.5939 145.757 65.5939" stroke="#1A2E35" stroke-width="0.972" stroke-linecap="round" stroke-linejoin="round"/>
<path d="M182.675 78.4662C180.352 82.5132 177.901 93.6573 177.901 93.6573" stroke="#1A2E35" stroke-width="0.972" stroke-linecap="round" stroke-linejoin="round"/>
<path d="M269.592 94.2394C269.592 94.2394 269.513 94.3592 269.383 94.586C269.372 94.5769 269.362 94.578 269.351 94.5689C269.34 94.5597 269.318 94.5418 269.297 94.5337C268.981 94.3217 269.592 94.2394 269.592 94.2394Z" fill="#C6856A"/>
<path d="M270.432 89.4521C270.47 89.3916 270.508 89.3311 270.536 89.2728C270.508 89.3311 270.48 89.3894 270.442 89.4497L270.432 89.4521Z" fill="white"/>
<path d="M270.884 88.3755C270.923 88.18 270.942 87.989 270.929 87.7946C270.952 87.9866 270.933 88.1776 270.884 88.3755Z" fill="white"/>
<path d="M269.985 86.2237C270.272 86.4446 270.48 86.6761 270.632 86.9152C270.478 86.6741 270.268 86.442 269.975 86.2259C269.888 86.1626 269.802 86.0991 269.705 86.038C269.799 86.0891 269.896 86.1505 269.985 86.2237Z" fill="white"/>
<path d="M180.688 105.224C167.892 98.2113 158.234 86.6069 145.006 80.2758C132.607 74.3419 119.703 70.3419 106.65 66.193C106.581 66.1711 106.513 66.1492 106.444 66.1271L103.538 71.4305C115.646 75.9888 128.13 79.2944 140.046 84.4282C147.18 87.5018 153.437 91.2212 159.421 96.176C165.356 101.091 171.268 106.293 178.264 109.66C201.769 120.971 228.736 116.221 239.123 116.221C241.511 116.221 249.113 114.394 251.172 114.158C251.537 112.397 251.902 110.636 252.267 108.875C241.401 110.513 199.792 115.694 180.688 105.224Z" fill="white" stroke="#1A2E35" stroke-width="0.972" stroke-linecap="round" stroke-linejoin="round"/>
<path d="M158.541 42.86C157.514 44.6448 155.446 44.265 153.611 42.1382C153.39 41.879 153.172 41.5928 152.956 41.2853C152.893 41.1903 152.828 41.0963 152.764 40.9968C152.618 40.7716 152.474 40.5303 152.343 40.2956C150.677 37.3004 150.194 33.5648 151.295 31.6544C151.952 30.5142 153.032 30.2502 154.202 30.7665C154.258 30.791 154.315 30.8203 154.374 30.8541C154.454 30.892 154.537 30.9395 154.62 30.9868C155.45 31.4662 156.303 32.3213 157.073 33.5117C159.071 36.6088 159.732 40.7928 158.541 42.86Z" fill="#1A2E35" stroke="#1A2E35" stroke-width="0.972" stroke-linecap="round" stroke-linejoin="round"/>
<path d="M160.667 39.7892C155.269 40.2253 150.529 36.2162 149.086 30.458C148.916 29.7603 148.796 29.0352 148.715 28.2877C148.7 28.0631 148.676 27.8353 148.664 27.6025C148.638 27.0769 148.638 26.5334 148.664 26.0206C148.994 19.4828 153.515 14.0622 159.298 13.5981C162.748 13.3208 165.938 14.847 168.153 17.4852C168.26 17.6113 168.363 17.7457 168.462 17.8883C168.61 18.0724 168.751 18.2726 168.891 18.4734C170.286 20.4829 171.164 22.996 171.312 25.78C171.679 33.0106 166.924 39.2872 160.667 39.7892Z" fill="#C6856A"/>
<path d="M171.312 25.78C171.164 22.9958 170.286 20.4829 168.891 18.4734C168.751 18.2729 168.61 18.0724 168.462 17.8883C168.363 17.7459 168.26 17.6115 168.153 17.4852C165.938 14.8472 162.748 13.3208 159.298 13.5981C159.238 13.6028 159.181 13.6158 159.122 13.6215C161.444 14.117 163.533 15.4208 165.118 17.3087C165.225 17.4349 165.328 17.5693 165.427 17.7119C165.575 17.8959 165.716 18.0964 165.857 18.2969C167.252 20.3067 168.13 22.8195 168.278 25.6036C168.641 32.7788 163.96 39.0071 157.774 39.5932C158.706 39.7965 159.675 39.8694 160.667 39.7892C166.924 39.2867 171.679 33.0106 171.312 25.78Z" fill="white"/>
<path d="M160.667 39.7892C155.269 40.2253 150.529 36.2162 149.086 30.458C148.916 29.7603 148.796 29.0352 148.715 28.2877C148.7 28.0631 148.676 27.8353 148.664 27.6025C148.638 27.0769 148.638 26.5334 148.664 26.0206C148.994 19.4828 153.515 14.0622 159.298 13.5981C162.748 13.3208 165.938 14.847 168.153 17.4852C168.26 17.6113 168.363 17.7457 168.462 17.8883C168.61 18.0724 168.751 18.2726 168.891 18.4734C170.286 20.4829 171.164 22.996 171.312 25.78C171.679 33.0106 166.924 39.2872 160.667 39.7892Z" stroke="#1A2E35" stroke-width="0.972" stroke-linecap="round" stroke-linejoin="round"/>
<path d="M172.359 15.5354C172.563 14.816 172.7 14.0374 172.744 13.1842C172.962 8.9588 169.383 6.97331 167.152 8.35361C166.77 8.59031 166.42 8.77499 166.167 9.06349C165.554 9.76188 164.598 10.0666 163.769 9.64765C163.693 9.60906 163.614 9.57265 163.532 9.53883C162.437 9.08603 161.132 9.29932 160.24 10.0794C159.17 11.0149 158.9 12.4126 159.325 13.5969C159.316 13.5976 159.307 13.5974 159.298 13.598C153.515 14.0621 148.994 19.4827 148.664 26.0205C148.638 26.5449 148.638 27.1015 148.666 27.6384C148.871 27.8753 149.016 28.042 149.222 28.2787C154.629 29.3345 156.291 27.3766 157.319 24.5479C158.083 22.4449 161.098 22.1876 161.227 22.2033C163.095 22.4256 170.667 20.8574 170.667 20.8574C172.023 20.6619 174.833 19.0224 174.638 17.6642C174.469 16.4896 173.496 15.6228 172.359 15.5354Z" fill="#1A2E35" stroke="#1A2E35" stroke-width="0.972" stroke-linecap="round" stroke-linejoin="round"/>
<path d="M157.354 3.22293C155.723 2.98558 151.2 5.87646 149.861 8.4836C149.451 9.28235 149.286 9.97944 149.255 10.5623C149.21 11.412 150.34 11.8399 150.862 11.1683C152.139 9.5236 154.355 6.97693 156.286 6.28656C159.205 5.24309 158.985 3.46028 157.354 3.22293Z" fill="#1A2E35" stroke="#1A2E35" stroke-width="0.972" stroke-linecap="round" stroke-linejoin="round"/>
<path d="M167.054 0.862872C166.733 0.446483 166.108 0.361946 165.66 0.674075C165.211 0.986421 165.109 1.57708 165.431 1.99369C165.752 2.41008 166.377 2.49461 166.825 2.18248C167.274 1.87014 167.376 1.27948 167.054 0.862872Z" fill="#1A2E35" stroke="#1A2E35" stroke-width="0.972" stroke-linecap="round" stroke-linejoin="round"/>
<path d="M290.847 120.229L273.252 122.975C263.807 123.878 255.419 116.943 254.517 107.485C253.614 98.0266 260.54 89.6266 269.985 88.7232L287.096 85.6654L290.847 120.229Z" fill="#FF644C" stroke="#1A2E35" stroke-width="0.972" stroke-linecap="round" stroke-linejoin="round"/>
<path d="M295.281 102.26C296.317 111.805 294.332 119.85 290.848 120.229C287.363 120.608 283.699 113.178 282.663 103.634C281.628 94.0892 283.612 86.0442 287.097 85.6651C290.581 85.286 294.245 92.716 295.281 102.26Z" fill="#FF644C" stroke="#1A2E35" stroke-width="0.972" stroke-linecap="round" stroke-linejoin="round"/>
<path d="M285.974 94.5285C285.805 92.7559 287.105 91.1827 288.876 91.0177L301.009 89.888C302.776 89.7189 304.345 91.0164 304.514 92.7858C304.683 94.5552 303.387 96.1267 301.62 96.2957L289.471 97.427C287.706 97.5913 286.142 96.2946 285.974 94.5285Z" fill="white" stroke="#1A2E35" stroke-width="0.972" stroke-linecap="round" stroke-linejoin="round"/>
<path d="M287.932 112.08C287.763 110.307 289.063 108.734 290.834 108.569L302.967 107.439C304.734 107.27 306.303 108.567 306.472 110.337C306.641 112.106 305.345 113.678 303.578 113.847L291.429 114.978C289.664 115.142 288.1 113.846 287.932 112.08Z" fill="white" stroke="#1A2E35" stroke-width="0.972" stroke-linecap="round" stroke-linejoin="round"/>
<path d="M273.531 107.836C272.38 109.27 270.286 109.497 268.854 108.344C267.422 107.192 267.194 105.094 268.346 103.661C269.497 102.227 271.591 101.999 273.023 103.152C274.455 104.305 274.682 106.402 273.531 107.836Z" fill="white" stroke="#1A2E35" stroke-width="0.972" stroke-linecap="round" stroke-linejoin="round"/>
<path d="M141.676 98.5415C147.763 97.7636 144.687 92.4065 144.687 92.4065C144.687 92.4065 146.932 91.5111 147.242 88.9735C147.265 86.7075 144.146 87.2962 139.658 83.2498C138.551 82.2519 139.235 80.43 139.645 79.2247C140.798 75.8417 145.527 81.1809 145.757 80.6002C146.743 78.1075 140.488 73.3859 138.843 72.6654C137.319 71.998 135.855 71.5272 134.171 71.646C131.051 71.8662 127.51 74.5033 124.349 73.9464C122.414 73.6057 120.468 73.322 118.526 73.0228C113.962 72.3199 109.39 71.5695 104.8 71.0519C104.486 71.0163 104.172 70.9799 103.857 70.9537C104.23 70.9847 106.131 66.6782 106.443 66.1274C106.394 66.2141 101.906 65.6288 101.456 65.5814C99.8921 65.4164 98.4626 65.051 97.0438 64.3736C94.105 62.9708 91.9002 60.4137 89.653 58.0677C87.622 55.9474 84.5706 54.0436 81.1061 53.8702C81.1061 53.8702 76.5571 62.5591 73.1941 71.8166C69.0222 83.3001 66.2682 96.8595 79.2866 97.621C82.1407 97.7881 124.21 102.224 135.552 102.63C142.587 102.881 139.715 98.7921 141.676 98.5415Z" fill="#C6856A" stroke="#1A2E35" stroke-width="0.972" stroke-linecap="round" stroke-linejoin="round"/>
<path d="M93.7266 70.2179L103.857 70.9538" stroke="#1A2E35" stroke-width="0.972" stroke-linecap="round" stroke-linejoin="round"/>
<path d="M246.344 105.752C248.988 110.247 252.872 113.536 256.992 111.206C260.139 109.426 252.091 99.5206 252.091 99.5206" fill="#C6856A"/>
<path d="M246.344 105.752C248.988 110.247 252.872 113.536 256.992 111.206C260.139 109.426 252.091 99.5206 252.091 99.5206" stroke="#1A2E35" stroke-width="0.972" stroke-linecap="round" stroke-linejoin="round"/>
<path d="M230.214 118.886C230.214 118.886 234.624 112.496 241.876 116.11C242.329 113.209 242.223 110.714 245.239 110.408C248.438 110.083 248.78 111.45 249.459 112.806C249.294 112.475 250.181 111.256 250.359 111.028C251.786 109.209 255.68 109.697 256.099 112.224C256.099 112.224 259.474 108.781 261.444 110.969C263.415 113.156 263.389 117.78 260.476 121.05C255.581 126.544 236.192 124.999 236.192 124.999" fill="#C6856A"/>
<path d="M230.214 118.886C230.214 118.886 234.624 112.496 241.877 116.11C242.33 113.209 242.223 110.714 245.239 110.408C248.438 110.083 248.78 111.45 249.46 112.806C249.294 112.475 250.182 111.256 250.36 111.028C251.787 109.209 255.68 109.697 256.099 112.224C256.099 112.224 259.474 108.781 261.445 110.969C263.415 113.156 263.389 117.78 260.476 121.05C255.581 126.544 236.192 124.999 236.192 124.999L229.171 124.677" stroke="#1A2E35" stroke-width="0.972" stroke-linecap="round" stroke-linejoin="round"/>
<path d="M249.46 112.806C249.707 117.485 247.354 120.753 244.525 121.556" stroke="#1A2E35" stroke-width="0.972" stroke-linecap="round" stroke-linejoin="round"/>
<path d="M256.1 112.224C256.354 117.031 254.851 121.01 252.74 121.122" stroke="#1A2E35" stroke-width="0.972" stroke-linecap="round" stroke-linejoin="round"/>
<path d="M258.805 110.432C257.23 116.442 261.561 119.304 261.706 119.296" stroke="#1A2E35" stroke-width="0.972" stroke-linecap="round" stroke-linejoin="round"/>
<path d="M106.444 66.1274L109.125 61.318" stroke="#1A2E35" stroke-width="0.972" stroke-linecap="round" stroke-linejoin="round"/>
</svg>
