<svg width="401" height="296" viewBox="0 0 401 296" fill="none" xmlns="http://www.w3.org/2000/svg">
<path d="M251.675 183.317L247.673 185.065C247.673 185.065 242.656 185.953 242.7 183.325C242.708 182.868 242.875 182.297 243.251 181.603C243.549 181.032 243.995 180.373 244.608 179.617V179.608C245.957 177.947 246.929 176.224 247.621 174.731C248.777 172.217 249.144 170.31 249.144 170.31L251.675 183.317Z" fill="#1A2E35" stroke="#1A2E35" stroke-width="0.972" stroke-linecap="round" stroke-linejoin="round"/>
<path d="M333.029 195.653C336.942 200.512 344.571 207.765 346.655 215.429C346.756 215.8 346.833 216.158 346.908 216.515L371.123 215.814L337.625 186.882L331.124 192.436C331.553 193.441 332.132 194.539 333.029 195.653Z" fill="#FF644C" stroke="#1A2E35" stroke-width="0.972" stroke-linecap="round" stroke-linejoin="round"/>
<path d="M311.1 273.722C307.303 276.336 303.842 276.82 300.909 275.609L297.706 295.486L332.319 267.907L324.923 254.827C321.676 260.218 317.425 269.367 311.1 273.722Z" fill="#FF644C" stroke="#1A2E35" stroke-width="0.972" stroke-linecap="round" stroke-linejoin="round"/>
<path d="M338.499 229.182C336.415 229.622 331.73 230.044 325.915 230.465C328.621 240.247 326.108 242.356 329.567 245.634C333.525 249.386 328.525 249 325.232 254.308C321.948 259.616 317.631 269.23 311.098 273.72C304.574 278.22 299.031 276.453 295.476 270.513C292.884 266.189 285.651 248.147 279.845 234.745C274.836 235.712 273.137 235.844 264.415 232.961C255.509 230.017 254.721 188.406 245.763 159.018C245.614 158.544 245.465 158.078 245.316 157.612C249.669 155.055 255.982 151.979 263.995 149.835C264.021 149.826 264.039 149.817 264.065 149.817C268.251 148.701 272.892 147.84 277.971 147.444H278.023C278.076 147.436 278.129 147.436 278.181 147.427L278.374 147.409L278.846 147.365L280.239 147.251C280.904 147.19 281.57 147.119 282.244 147.031C282.778 146.979 283.321 146.908 283.864 146.829C284.241 146.785 284.617 146.733 284.994 146.671C285.545 146.601 286.097 146.513 286.658 146.425C286.754 146.407 286.85 146.39 286.955 146.381C287.017 146.372 287.069 146.363 287.131 146.346H287.166C287.674 146.258 288.19 146.17 288.698 146.082C288.733 146.073 288.777 146.073 288.812 146.065C288.821 146.056 288.838 146.056 288.847 146.056C288.9 146.047 289.031 146.029 289.224 146.021C289.32 146.012 289.434 146.003 289.556 145.994C289.688 145.985 289.828 145.977 289.977 145.968C290.213 145.959 290.476 145.941 290.765 145.924C291.054 145.906 291.378 137.966 291.728 137.957C292.166 137.931 292.648 137.904 293.147 137.878H293.19C293.576 137.86 293.97 137.843 294.372 137.816C294.381 137.816 294.399 137.808 294.416 137.816C294.679 137.808 294.959 137.79 295.231 137.773H295.274C295.415 137.764 295.546 137.764 295.686 137.755C295.721 137.755 295.765 137.746 295.809 137.746C295.931 137.737 296.045 137.728 296.168 137.728C296.448 137.72 296.728 137.702 297.017 137.685C297.043 137.685 297.07 137.676 297.104 137.685C297.385 137.676 297.665 137.658 297.945 137.641C297.972 137.641 297.998 137.632 298.033 137.641C298.322 137.632 298.611 137.614 298.9 137.597C298.917 137.588 298.935 137.588 298.943 137.597C299.863 137.553 300.773 137.509 301.667 137.465C301.693 137.456 301.719 137.456 301.754 137.465C302.025 137.447 302.297 137.439 302.56 137.421H302.647C303.208 137.395 303.751 137.369 304.267 137.342C304.977 137.307 305.633 137.281 306.238 137.254C306.57 137.237 306.877 137.228 307.166 137.21H307.192C307.376 137.202 307.56 137.193 307.726 137.184C307.823 137.175 307.919 137.175 308.007 137.175C308.322 137.157 308.585 137.149 308.795 137.14C309.11 137.122 309.285 137.113 309.285 137.113C309.443 137.28 309.592 137.439 309.758 137.597C309.784 137.614 309.802 137.641 309.828 137.658C311.238 139.064 312.884 140.321 314.312 141.314C316.221 142.623 317.735 143.45 317.762 143.458C317.7 143.599 317.552 143.74 317.534 143.889C317.525 143.924 317.525 143.959 317.543 143.995C319.583 148.916 318.121 159.484 318.051 161.031C317.779 167.025 313.681 179.073 312.184 183.168C312.105 183.405 312.008 183.643 311.921 183.88C311.886 183.977 311.851 184.065 311.816 184.161C311.045 186.218 310.38 188.116 309.837 189.821C309.758 190.058 309.688 190.295 309.609 190.541C318.068 190.567 322.613 190.611 326.282 188.696C331.116 186.182 329.119 190.796 333.025 195.656C336.939 200.507 344.567 207.766 346.651 215.429C348.744 223.092 345.259 227.767 338.499 229.182Z" fill="#CA2B26"/>
<path d="M298.577 266.359C296.992 263.712 273.782 209.192 273.782 209.192C273.782 209.192 272.338 182.201 272.837 167.941C271.447 168.21 267.115 208.476 267.577 209.482C270.68 216.233 292.921 266.247 295.474 270.513C298.064 274.839 301.712 276.935 306.024 276.025C303.384 275.4 300.35 269.323 298.577 266.359Z" fill="white"/>
<path d="M249.182 157.614C249.82 157.24 250.512 156.853 251.232 156.462C250.977 155.936 250.754 155.389 250.564 154.822C248.59 155.775 246.829 156.726 245.315 157.614C254.692 187.059 255.367 229.974 264.414 232.963C271.2 235.206 273.737 235.621 276.892 235.238C274.839 234.98 272.315 234.297 268.281 232.963C259.234 229.974 258.559 187.059 249.182 157.614Z" fill="white"/>
<path d="M338.499 229.182C336.415 229.622 331.73 230.044 325.915 230.466C328.621 240.247 326.108 242.356 329.567 245.634C333.525 249.386 328.525 249 325.232 254.308C321.948 259.616 317.631 269.23 311.098 273.72C304.574 278.22 299.031 276.454 295.476 270.513C292.884 266.189 285.651 248.147 279.845 234.745C274.836 235.712 273.137 235.844 264.415 232.961C255.509 230.017 254.721 188.406 245.763 159.018C245.614 158.544 245.465 158.078 245.316 157.612C249.669 155.055 255.982 151.979 263.995 149.835C264.021 149.826 264.039 149.817 264.065 149.817C268.251 148.701 272.892 147.84 277.971 147.444H278.023C278.076 147.436 278.129 147.436 278.181 147.427L278.374 147.409L278.846 147.365L280.239 147.251C280.904 147.19 281.57 147.119 282.244 147.031C282.778 146.979 283.321 146.908 283.864 146.829C284.241 146.786 284.617 146.733 284.994 146.671C285.545 146.601 286.097 146.513 286.658 146.425C286.754 146.407 286.85 146.39 286.955 146.381C286.973 146.372 286.991 146.372 287.017 146.364C287.052 146.364 287.087 146.355 287.13 146.346H287.166C287.673 146.258 288.19 146.17 288.698 146.082C288.733 146.074 288.777 146.074 288.812 146.065C288.821 146.056 288.838 146.056 288.847 146.056C288.899 146.047 289.031 146.03 289.223 146.021C289.32 146.012 289.433 146.003 289.556 145.994C289.688 145.986 289.827 145.977 289.976 145.968C290.213 145.951 290.476 145.933 290.765 145.924C291.054 145.907 291.378 137.966 291.728 137.957C292.166 137.931 292.639 137.905 293.146 137.878H293.19C293.567 137.852 293.961 137.834 294.372 137.817C294.381 137.817 294.399 137.808 294.416 137.817C294.687 137.799 294.959 137.781 295.231 137.773H295.274C295.449 137.764 295.633 137.755 295.808 137.746C295.931 137.738 296.045 137.729 296.168 137.729C296.448 137.711 296.728 137.702 297.017 137.685C297.043 137.685 297.069 137.676 297.104 137.685C297.376 137.667 297.656 137.65 297.945 137.641C297.971 137.641 297.998 137.632 298.032 137.641C298.321 137.623 298.61 137.606 298.899 137.597C298.917 137.588 298.935 137.588 298.943 137.597C299.862 137.544 300.773 137.5 301.666 137.465C301.693 137.457 301.719 137.457 301.754 137.465C302.025 137.448 302.297 137.43 302.559 137.422H302.647C303.207 137.395 303.751 137.369 304.267 137.342C304.976 137.307 305.633 137.281 306.238 137.254C306.57 137.237 306.877 137.219 307.166 137.211H307.192C307.385 137.202 307.56 137.193 307.726 137.184C307.823 137.175 307.919 137.175 308.007 137.175C308.322 137.158 308.585 137.149 308.795 137.14C309.11 137.122 309.285 137.114 309.285 137.114C309.285 137.157 309.46 137.333 309.758 137.597C309.784 137.615 309.801 137.641 309.828 137.658C310.738 138.458 312.621 139.97 314.311 141.314C315.914 142.588 317.341 143.713 317.534 143.889L317.56 143.916C318.506 145.955 322.018 157.208 312.184 183.168C312.105 183.406 312.008 183.643 311.921 183.88C311.886 183.977 311.851 184.065 311.816 184.161C311.229 185.629 310.581 187.439 309.837 189.821C309.758 190.058 309.688 190.295 309.609 190.541C318.068 190.568 322.613 190.612 326.282 188.696C331.116 186.182 329.119 190.796 333.025 195.656C336.939 200.507 344.567 207.766 346.651 215.429C348.744 223.092 345.259 227.767 338.499 229.182Z" stroke="#1A2E35" stroke-width="0.972" stroke-linecap="round" stroke-linejoin="round"/>
<path d="M273.901 161.953C270.81 179.644 267.482 195.682 267.579 201.53C267.783 213.853 268.931 212.493 274.267 222.629C279.604 232.765 291.918 264.573 295.474 270.513" stroke="#1A2E35" stroke-width="0.972" stroke-linecap="round" stroke-linejoin="round"/>
<path d="M325.916 230.466C325.916 212.913 307.238 202.729 307.238 202.729L309.609 190.544" stroke="#1A2E35" stroke-width="0.972" stroke-linecap="round" stroke-linejoin="round"/>
<path d="M318.051 161.031C318.051 161.031 330.467 157.351 345.743 146.819C348.637 144.823 350.241 145.432 350.925 145.055C351.145 144.934 342.705 163.601 331.124 169.251C322.879 173.272 315.3 173.743 315.3 173.743L318.051 161.031Z" fill="#1A2E35" stroke="#1A2E35" stroke-width="0.972" stroke-linecap="round" stroke-linejoin="round"/>
<path d="M351.216 144.986C351.076 145.162 351.006 145.259 350.962 145.294C350.997 145.241 351.067 145.144 351.137 145.065L351.146 145.056C351.155 145.039 351.163 145.03 351.172 145.013C351.146 145.03 351.111 145.048 351.067 145.065H351.058C351.05 145.065 351.032 145.083 351.006 145.109C350.48 145.716 346.767 152.597 340.585 157.307C340.55 157.342 340.506 157.369 340.462 157.395C336.67 160.26 331.959 162.281 326.504 161.552C314.647 159.97 310.671 161.956 295.478 144.309C295.373 147.192 289.628 151.437 273.305 155.848C258.024 159.979 251.623 160.102 251.623 160.102C251.553 160.436 251.474 160.769 251.404 161.095C250.861 163.643 250.318 166.086 249.784 168.389C249.057 171.491 248.427 174.189 247.621 176.615C246.544 179.866 245.134 182.617 242.7 185.209C242.708 184.752 242.875 184.181 243.251 183.487C240.458 185.473 242.402 164.768 238.715 146.102C238.689 145.953 238.663 145.812 238.628 145.663C238.601 145.522 238.567 145.382 238.531 145.232C238.356 144.406 238.111 143.651 237.822 142.948C237.805 142.912 237.796 142.868 237.778 142.833C236.614 140.039 234.827 137.956 233.663 134.722C233.531 134.37 233.409 134.019 233.277 133.676C233.164 133.342 233.032 133.008 232.901 132.692C232.892 132.674 232.883 132.657 232.883 132.648C232.621 131.962 232.34 131.286 232.051 130.627C231.5 133.307 229.275 137.701 227.183 141.436C225.098 145.171 223.154 148.229 223.154 148.229C223.154 148.229 216.499 135.636 209.844 133.14C206.148 131.751 203.145 130.627 200.903 129.598C200.413 129.379 199.966 129.159 199.554 128.939C199.414 128.869 199.283 128.799 199.152 128.728C199.02 128.667 198.906 128.596 198.784 128.517C198.574 128.403 198.381 128.28 198.206 128.175C198.066 128.078 197.926 127.99 197.803 127.893C197.61 127.753 197.435 127.612 197.278 127.48C197.199 127.41 197.129 127.349 197.059 127.269C196.84 127.067 196.664 126.848 196.542 126.637C196.498 126.566 196.463 126.496 196.428 126.426C196.385 126.356 196.358 126.285 196.332 126.215L205.045 116.082C205.886 115.16 209.354 101.863 210.492 99.3232V99.3144C210.702 98.8576 210.912 98.4006 211.14 97.9435C211.359 97.4779 211.587 97.0208 211.814 96.555C212.051 96.0979 212.287 95.6409 212.533 95.1838C212.778 94.7358 212.97 94.2612 213.11 93.7603C213.855 92.4861 214.687 91.2205 215.598 90.0166C218.207 86.5542 221.456 83.5398 225.003 82.0545L233.733 78.3986C233.76 78.3724 233.795 78.3459 233.821 78.3283C236.667 75.7271 238.059 71.8953 239.819 70.217C239.846 70.1908 239.872 70.1643 239.898 70.1379C240.003 70.0499 240.108 69.9622 240.213 69.8743H240.222C240.292 69.8217 240.362 69.7776 240.432 69.7337C240.485 69.6985 240.537 69.6634 240.59 69.637C240.607 69.6282 240.625 69.6105 240.651 69.6105C240.721 69.5667 240.8 69.5314 240.879 69.505C241.106 69.4173 241.334 69.3379 241.579 69.2502C241.816 69.1711 242.052 69.092 242.289 69.0129C249.671 66.6755 260.985 67.0005 263.822 64.5222C270.04 62.3514 290.128 53.7304 303.071 71.7285C303.071 71.7285 303.079 71.7371 303.088 71.7547C303.263 72.0095 303.456 72.2732 303.631 72.537C303.85 72.8533 306.442 75.4106 309.586 78.4601C309.612 78.4865 309.638 78.5127 309.665 78.5392C314.682 83.4078 320.032 89.2639 320.303 89.5804C319.805 89.4751 312.169 87.8508 306.433 92.9994C306.353 93.0749 306.268 93.1371 306.188 93.2153C306.109 93.2768 306.039 93.3559 305.969 93.4262C305.847 93.5403 305.733 93.6547 305.628 93.7777C305.4 94.0238 305.181 94.2874 304.963 94.5688C304.849 94.7094 304.735 94.8588 304.63 95.0082C304.525 95.1664 304.411 95.3247 304.306 95.4915C304.279 95.5353 304.262 95.588 304.244 95.6409C304.236 95.6673 304.227 95.7024 304.236 95.7376C304.227 95.7641 304.222 95.7822 304.227 95.8079C304.277 96.0864 305.847 100.017 309.271 104.051C313.08 109.324 317.669 115.089 317.765 115.203C318.833 116.407 319.858 117.567 320.821 118.684C327.573 126.461 332.056 132.156 337.021 136.207C337.083 136.269 337.144 136.321 337.214 136.365C342.748 140.847 348.011 143.308 350.183 144.38C350.192 144.389 350.201 144.398 350.209 144.398C350.349 144.468 350.481 144.529 350.595 144.582C350.717 144.652 350.822 144.705 350.91 144.749C350.963 144.776 351.006 144.802 351.05 144.828C351.12 144.872 351.164 144.898 351.19 144.934C351.208 144.943 351.217 144.96 351.217 144.969C351.234 144.943 351.242 144.943 351.216 144.986Z" fill="#FF644C"/>
<path d="M274.654 99.3061L271.212 107.303C268.121 104.825 263.786 101.09 261.912 98.2428C259.889 95.1845 253.288 77.5386 249.934 66.9049L250.215 62.3907L250.742 62.7361C257.437 67.1219 263.214 72.7773 267.749 79.3848L272.429 86.203L263.935 90.3422L274.654 99.3061Z" fill="#FF644C" stroke="#1A2E35" stroke-width="0.972" stroke-linecap="round" stroke-linejoin="round"/>
<path d="M237.017 82.2482L230.545 84.2167C226 85.6053 222.068 88.5492 219.52 92.5742C217.751 95.3689 216.07 98.4446 214.581 101.485C213.434 104.025 209.975 117.322 209.134 118.244L200.421 128.377C200.448 128.447 200.448 128.474 200.43 128.474C200.518 128.746 200.964 129.537 200.903 129.599C200.413 129.379 199.966 129.159 199.554 128.94C199.414 128.869 199.283 128.799 199.152 128.729C199.02 128.667 198.906 128.597 198.784 128.518C198.574 128.404 198.381 128.28 198.206 128.175C198.066 128.078 197.926 127.99 197.803 127.894C197.61 127.753 197.435 127.613 197.278 127.481C197.199 127.41 197.129 127.349 197.059 127.27C196.848 127.059 196.673 126.848 196.542 126.637C196.498 126.567 196.463 126.497 196.428 126.426C196.385 126.356 196.358 126.286 196.332 126.215L205.045 116.083C205.886 115.16 209.354 101.864 210.492 99.3237V99.3148C211.131 97.5398 212.016 95.6415 213.11 93.7607C213.855 92.4865 214.686 91.2209 215.597 90.0171C218.207 86.5546 221.456 83.5402 225.002 82.0549L233.733 78.399C233.759 78.3728 233.794 78.3463 233.821 78.3287C236.873 75.3459 238.085 71.931 239.819 70.2174C239.845 70.1912 239.872 70.1647 239.898 70.1383C240.003 70.0504 240.108 69.9627 240.213 69.8747H240.222C240.292 69.8221 240.362 69.778 240.432 69.7341C240.484 69.6989 240.537 69.6638 240.589 69.6374C240.607 69.6286 240.625 69.6109 240.651 69.6109C240.721 69.5671 240.8 69.5318 240.878 69.5054C241.106 69.4177 241.334 69.3383 241.579 69.2506C241.815 69.1715 242.052 69.0924 242.288 69.0133C242.542 70.4459 240.055 79.9019 237.017 82.2482Z" fill="white"/>
<path d="M351.216 144.969V144.986C351.19 145.013 351.172 145.039 351.146 145.057L351.137 145.066C351.12 145.074 351.093 145.074 351.067 145.066H351.058C351.05 145.066 351.032 145.083 351.006 145.11C350.507 145.751 347.302 152.659 340.585 157.307C340.55 157.343 340.506 157.369 340.462 157.395C336.854 159.874 332.239 161.684 326.504 161.552C314.551 161.271 308.044 160.902 295.478 144.31C295.373 147.192 286.8 151.314 273.305 155.848C258.296 160.893 251.623 160.102 251.623 160.102C251.553 160.436 251.474 160.77 251.404 161.095C249.276 170.727 246.903 177.177 244.609 181.492V181.501C244.477 181.747 244.355 181.984 244.223 182.213C243.856 182.872 243.532 183.285 243.251 183.487C240.458 185.473 242.402 164.768 238.715 146.103C238.689 145.953 238.663 145.813 238.628 145.663C238.601 145.523 238.567 145.382 238.531 145.233C238.365 144.538 238.12 143.756 237.822 142.948C237.805 142.913 237.796 142.869 237.778 142.833C236.185 138.536 233.19 133.272 232.901 132.692C232.892 132.674 232.883 132.657 232.883 132.648C232.621 131.963 232.34 131.286 232.051 130.627C231.5 133.307 229.275 137.701 227.183 141.436C225.098 145.171 223.154 148.229 223.154 148.229C223.154 148.229 216.499 135.636 209.844 133.14C206.148 131.752 203.145 130.627 200.903 129.599C200.413 129.379 199.966 129.159 199.554 128.939C199.414 128.869 199.283 128.799 199.152 128.729C199.02 128.667 198.906 128.597 198.784 128.518C198.574 128.403 198.381 128.28 198.206 128.175C198.066 128.078 197.926 127.99 197.803 127.894C197.61 127.753 197.435 127.612 197.278 127.481C197.199 127.41 197.129 127.349 197.059 127.27C196.84 127.068 196.664 126.848 196.542 126.637C196.498 126.567 196.463 126.496 196.428 126.426C196.385 126.356 196.358 126.286 196.332 126.215L205.045 116.082C205.886 115.16 209.354 101.863 210.492 99.3235V99.3146C210.702 98.8578 210.912 98.4008 211.14 97.9437C211.359 97.4781 211.587 97.0211 211.814 96.5552C212.051 96.0981 212.287 95.6411 212.533 95.1841C213.47 93.444 214.52 91.7128 215.598 90.0166C218.207 86.5542 221.456 83.5398 225.003 82.0545L233.733 78.3986C233.76 78.3724 233.795 78.3459 233.821 78.3283C236.667 75.7271 238.059 71.8953 239.819 70.217C239.846 70.1908 239.872 70.1643 239.898 70.1379C240.003 70.0499 240.108 69.9622 240.213 69.8743H240.222C240.292 69.8217 240.362 69.7776 240.432 69.7337C240.502 69.6899 240.572 69.6458 240.651 69.6105C240.721 69.5667 240.8 69.5314 240.879 69.505C241.106 69.4173 241.334 69.3379 241.579 69.2502C241.816 69.1711 242.052 69.092 242.289 69.0129C249.671 66.6755 260.985 67.0005 263.822 64.5222C270.04 62.3514 290.128 53.7304 303.071 71.7285C303.071 71.7285 303.079 71.7371 303.088 71.7547C303.377 72.0712 306.258 75.0327 309.586 78.4601C309.612 78.4865 309.638 78.5127 309.665 78.5392C314.455 83.4605 320.155 89.3046 320.409 89.6032C319.91 89.4891 311.74 87.749 306.188 93.2151C306.109 93.2765 306.039 93.3557 305.969 93.4259C305.846 93.5401 305.733 93.6545 305.627 93.7774C305.4 94.0236 305.181 94.2871 304.962 94.5686C304.848 94.7092 304.734 94.8586 304.629 95.008C304.524 95.1662 304.41 95.3244 304.305 95.4912C304.279 95.5351 304.253 95.5789 304.244 95.6406C304.235 95.6671 304.226 95.7021 304.235 95.7374C304.226 95.7638 304.226 95.7815 304.226 95.8077C304.279 96.8447 306.582 100.325 309.27 104.051C313.08 109.324 317.668 115.089 317.765 115.203C318.833 116.407 319.858 117.567 320.821 118.683C327.625 126.461 332.275 132.155 337.021 136.207C337.082 136.268 337.144 136.321 337.213 136.365C337.511 136.629 337.809 136.875 338.107 137.112C343.16 141.146 348.09 143.396 350.183 144.38C350.191 144.389 350.2 144.397 350.209 144.397C350.349 144.467 350.48 144.529 350.594 144.582C350.717 144.652 350.822 144.705 350.91 144.749C350.962 144.775 351.006 144.801 351.05 144.828C351.12 144.872 351.163 144.898 351.19 144.933C351.207 144.942 351.216 144.96 351.216 144.969Z" stroke="#1A2E35" stroke-width="0.972" stroke-linecap="round" stroke-linejoin="round"/>
<path d="M233.94 74.7784C234.014 74.3659 231.79 84.2968 232.052 90.3408C232.301 96.0927 232.366 96.0896 232.366 96.0896L237.261 99.3029L233.361 109.569L245.327 125.133L239.183 82.9648L238.277 74.339L233.94 74.7784Z" fill="#FF644C" stroke="#1A2E35" stroke-width="0.972" stroke-linecap="round" stroke-linejoin="round"/>
<path d="M292.697 106.031L280.472 90.454" stroke="#1A2E35" stroke-width="0.972" stroke-linecap="round" stroke-linejoin="round"/>
<path d="M276.33 92.8951C280.228 97.9735 285.112 100.745 287.251 99.0919" stroke="#1A2E35" stroke-width="0.972" stroke-linecap="round" stroke-linejoin="round"/>
<path d="M227.346 109.569C222.094 119.907 232.052 130.624 232.052 130.624" stroke="#1A2E35" stroke-width="0.972" stroke-linecap="round" stroke-linejoin="round"/>
<path d="M221.201 118.426C224.425 122.627 231.151 131.322 232.051 130.627" stroke="#1A2E35" stroke-width="0.972" stroke-linecap="round" stroke-linejoin="round"/>
<path d="M315.852 95.0059L312.722 89.7384C312.722 89.7384 314.862 89.256 316.98 89.2531C320.046 89.2488 320.303 89.5808 320.303 89.5808C320.303 89.5808 321.271 89.4061 318.413 92.8997C317.469 94.0548 315.852 95.0059 315.852 95.0059Z" fill="#1A2E35" stroke="#1A2E35" stroke-width="0.972" stroke-linecap="round" stroke-linejoin="round"/>
<path d="M215.546 147.367L219.413 142.297C219.413 142.297 225.155 148.243 223.154 148.23C221.153 148.218 215.546 147.367 215.546 147.367Z" fill="#1A2E35" stroke="#1A2E35" stroke-width="0.972" stroke-linecap="round" stroke-linejoin="round"/>
<path d="M295.474 144.31L289.707 136.27" stroke="#1A2E35" stroke-width="0.972" stroke-linecap="round" stroke-linejoin="round"/>
<path d="M274.653 109.949C274.653 109.949 273.191 108.885 271.212 107.303C268.121 104.825 263.786 101.09 261.912 98.2428C259.889 95.1845 254.249 80.5137 250.896 69.88" stroke="#1A2E35" stroke-width="0.972" stroke-linecap="round" stroke-linejoin="round"/>
<path d="M243.518 117.506C245.283 132.121 260.119 150.744 245.316 180.105" stroke="#1A2E35" stroke-width="0.972" stroke-linecap="round" stroke-linejoin="round"/>
<path d="M242.398 82.7755C243.706 84.4757 245.785 83.7933 247.38 81.3383C247.572 81.0395 247.757 80.7133 247.936 80.3652C247.988 80.2583 248.043 80.1521 248.095 80.04C248.213 79.7868 248.328 79.5174 248.43 79.2565C249.731 75.9277 249.707 71.9999 248.306 70.1798C247.469 69.0937 246.318 68.9723 245.184 69.6701C245.13 69.7033 245.075 69.7415 245.019 69.7849C244.941 69.8354 244.863 69.8959 244.784 69.9565C243.996 70.5682 243.235 71.5713 242.607 72.9097C240.979 76.3902 240.881 80.8062 242.398 82.7755Z" fill="#1A2E35" stroke="#1A2E35" stroke-width="0.972" stroke-linecap="round" stroke-linejoin="round"/>
<path d="M249.288 72.8296L249.285 72.8405C247.962 75.8883 245.622 78.2425 242.707 79.2954C242.605 79.3401 242.505 79.3736 242.408 79.3964C242.146 79.4834 241.887 79.5596 241.619 79.6222C241.533 79.6475 241.449 79.662 241.365 79.6765C241.17 79.7219 240.976 79.7676 240.776 79.7886C240.738 79.8026 240.703 79.8058 240.681 79.8003C240.384 79.8442 240.078 79.8747 239.775 79.8941C238.017 79.9913 236.321 79.6421 234.767 78.9353C230.529 77.0088 227.315 72.4236 226.845 66.9181C226.691 65.1064 226.852 63.3702 227.29 61.7699C227.532 60.8022 227.88 59.8716 228.323 59.0215C228.435 58.7948 228.557 58.5706 228.688 58.3599C228.759 58.2041 228.855 58.0428 228.946 57.9031C230.859 54.8816 233.924 52.8622 237.5 52.6479C237.514 52.6398 237.525 52.6425 237.535 52.645C237.594 52.6362 237.662 52.6409 237.719 52.6432C243.674 52.423 248.999 57.3531 250.233 63.9871C250.334 64.5295 250.415 65.1023 250.454 65.6649C250.478 65.9011 250.472 66.1186 250.499 66.3439C250.521 67.1213 250.499 67.8882 250.414 68.6283C250.405 68.7643 250.382 68.9088 250.362 69.0421C250.178 70.3925 249.818 71.6662 249.288 72.8296Z" fill="#FFD9C3"/>
<path d="M242.707 79.2953C242.605 79.34 242.505 79.3735 242.408 79.3963C242.146 79.4833 241.887 79.5595 241.619 79.6221C241.533 79.6474 241.449 79.6619 241.363 79.6872C241.17 79.7218 240.976 79.7674 240.776 79.7885C240.738 79.8025 240.703 79.8056 240.681 79.8002C240.384 79.8441 240.078 79.8746 239.775 79.894C238.017 79.9912 236.321 79.642 234.767 78.9352C230.529 77.0087 227.315 72.4235 226.845 66.918C226.691 65.1063 226.852 63.3701 227.29 61.7698C227.532 60.8021 227.88 59.8715 228.323 59.0214C228.435 58.7947 228.557 58.5704 228.688 58.3598C228.759 58.204 228.855 58.0426 228.946 57.903C230.859 54.8815 233.924 52.8621 237.5 52.6478C237.514 52.6397 237.525 52.6424 237.535 52.6449C237.594 52.6361 237.662 52.6408 237.719 52.6431C235.396 53.4803 233.421 55.1157 232.052 57.2994C231.961 57.4391 231.868 57.5894 231.783 57.7535C231.664 57.9669 231.541 58.1909 231.43 58.4179C230.888 59.4866 230.472 60.6545 230.22 61.9076C229.923 63.3 229.822 64.7853 229.951 66.3147C230.348 71.1114 232.861 75.2173 236.312 77.4621C237.833 78.4492 239.544 79.0783 241.342 79.2444C241.789 79.2941 242.245 79.3111 242.707 79.2953Z" fill="white"/>
<path d="M249.288 72.8296L249.285 72.8405C247.962 75.8883 245.622 78.2425 242.707 79.2954C242.605 79.3401 242.505 79.3736 242.408 79.3964C242.146 79.4834 241.887 79.5596 241.619 79.6222C241.533 79.6475 241.449 79.662 241.365 79.6765C241.17 79.7219 240.976 79.7676 240.776 79.7886C240.738 79.8026 240.703 79.8058 240.681 79.8003C240.384 79.8442 240.078 79.8747 239.775 79.8941C238.017 79.9913 236.321 79.6421 234.767 78.9353C230.529 77.0088 227.315 72.4236 226.845 66.9181C226.691 65.1064 226.852 63.3702 227.29 61.7699C227.532 60.8022 227.88 59.8716 228.323 59.0215C228.435 58.7948 228.557 58.5706 228.688 58.3599C228.759 58.2041 228.855 58.0428 228.946 57.9031C230.859 54.8816 233.924 52.8622 237.5 52.6479C237.514 52.6398 237.525 52.6425 237.535 52.645C237.594 52.6362 237.662 52.6409 237.719 52.6432C243.674 52.423 248.999 57.3531 250.233 63.9871C250.334 64.5295 250.415 65.1023 250.454 65.6649C250.478 65.9011 250.494 66.8959 250.521 67.1213C250.542 67.8986 250.499 67.8882 250.414 68.6283C250.405 68.7643 250.382 68.9088 250.362 69.0421C250.178 70.3925 249.818 71.6662 249.288 72.8296Z" stroke="#1A2E35" stroke-width="0.972" stroke-linecap="round" stroke-linejoin="round"/>
<path d="M149.394 161.341C148.506 160.797 147.905 159.843 147.498 158.833C146.718 156.894 146.707 154.728 147.329 152.732L149.394 146.106C149.394 146.106 151.412 141.819 154.477 139.61C158.545 136.678 162.237 140.115 162.237 140.115L191.976 135.368L198.656 128.118C202.019 129.925 204.055 130.97 209.841 133.14C213.637 134.563 217.119 138.863 219.413 142.297C214.913 148.253 208.126 157.575 206.713 158.197C204.003 159.39 156.38 165.626 149.394 161.341Z" fill="#FFD9C3" stroke="#1A2E35" stroke-width="0.972" stroke-linecap="round" stroke-linejoin="round"/>
<path d="M136.724 153.127C136.724 153.127 141.551 152.872 146.659 152.367" stroke="#1A2E35" stroke-width="0.972" stroke-linecap="round" stroke-linejoin="round"/>
<path d="M367.749 49.0821C346.093 24.08 315.697 7.65503 282.167 2.8391C253.076 -1.34393 225.816 0.0532006 201.156 7.00472C181.374 12.5763 163.23 21.707 147.205 34.1336C129.594 47.7894 118.563 62.2491 112.82 71.0634C111.67 72.8281 112.933 75.1639 115.034 75.1639C115.922 75.1639 116.748 74.722 117.235 73.9772C122.77 65.519 133.489 51.4358 150.418 38.3078C174.771 19.4134 217.278 -1.1683 281.414 8.05918C346.031 17.3481 394.746 71.2632 394.746 133.465C394.746 154.829 384.212 176.72 368.519 187.925C356.181 196.74 341.372 198.524 325.715 193.084C323.254 192.231 320.969 191.291 318.85 190.272C318.806 190.254 318.771 190.237 318.727 190.219C306.248 184.261 299.365 175.798 294.978 166.623C291.668 159.733 289.768 152.439 287.964 145.505C283.98 130.179 280.223 115.713 262.84 111.513C242.726 106.653 231.727 116.118 216.49 129.212C214.204 131.172 211.84 133.202 209.3 135.32C188.415 152.694 149.14 147.594 148.44 147.331C147.082 146.812 145.568 147.498 145.051 148.86C144.534 150.222 145.208 151.742 146.566 152.261C147.389 152.577 189.29 158.819 212.654 139.38C215.22 137.235 217.602 135.188 219.905 133.21C235.002 120.239 244.118 112.409 261.614 116.636C275.932 120.098 278.997 131.892 282.885 146.832C284.601 153.441 286.475 160.647 289.654 167.651C294.435 178.188 302.176 188.276 316.827 195.157C316.949 195.219 317.081 195.281 317.212 195.342C319.322 196.317 321.582 197.231 323.99 198.066C330.523 200.334 336.915 201.458 343.098 201.458C353.334 201.458 362.967 198.365 371.566 192.222C388.572 180.068 400 156.454 400 133.465C400 103.058 388.546 73.0824 367.749 49.0821Z" fill="white" stroke="#1A2E35" stroke-width="0.972" stroke-linecap="round" stroke-linejoin="round"/>
<path d="M255.658 129.251C250.127 126.048 254.716 121.756 254.716 121.756C254.716 121.756 249.249 120.908 251.403 117.506C253.342 114.443 260.912 117.087 261.615 116.636C261.615 116.636 263.54 117.353 263.673 114.032C263.819 110.37 257.023 110.677 257.035 110.027C257.087 107.304 264.659 107.16 267.372 107.19C268.582 107.204 276.966 111.057 278.145 111.308C280.34 111.774 295.571 110.089 295.571 110.089L292.698 106.031L295.141 104.865C297.421 103.776 302.125 99.6813 303.163 97.3716C307.458 89.8828 312.722 89.7384 312.722 89.7384C312.722 89.7384 318.218 98.7274 322.977 107.822C328.882 119.104 333.613 132.729 320.296 135.342C310.581 137.248 267.16 135.696 263.365 135.277C253.479 134.186 257.44 130.283 255.658 129.251Z" fill="#FFD9C3" stroke="#1A2E35" stroke-width="0.972" stroke-linecap="round" stroke-linejoin="round"/>
<path d="M301.583 109.049L295.571 110.089" stroke="#1A2E35" stroke-width="0.972" stroke-linecap="round" stroke-linejoin="round"/>
<path d="M158.19 146.106C156.107 150.126 152.896 153.157 149.224 151.325C146.419 149.926 152.932 140.966 152.932 140.966" fill="#FFD9C3"/>
<path d="M158.19 146.106C156.107 150.126 152.896 153.157 149.224 151.325C146.419 149.926 152.932 140.966 152.932 140.966" stroke="#1A2E35" stroke-width="0.972" stroke-linecap="round" stroke-linejoin="round"/>
<path d="M170.556 153.871C170.556 153.871 164.572 158.682 162.529 154.885C160.486 151.088 159.301 150.976 157.631 151.325L155.815 152.367C155.815 152.367 154.816 149.357 152.459 150.026C150.101 150.695 150.043 152.168 150.043 152.168C150.043 152.168 146.965 149.336 145.36 151.324C143.754 153.311 143.988 157.32 146.658 160.023C151.145 164.563 167.357 162.563 167.357 162.563" fill="#FFD9C3"/>
<path d="M170.556 153.871C170.556 153.871 164.572 158.682 162.529 154.885C160.486 151.088 159.301 150.976 157.631 151.325L155.815 152.367C155.815 152.367 154.816 149.357 152.459 150.026C150.101 150.695 150.043 152.168 150.043 152.168C150.043 152.168 146.965 149.336 145.36 151.324C143.754 153.311 143.988 157.32 146.658 160.023C151.145 164.563 167.357 162.563 167.357 162.563" stroke="#1A2E35" stroke-width="0.972" stroke-linecap="round" stroke-linejoin="round"/>
<path d="M155.815 152.367C155.815 156.437 157.904 159.73 160.486 159.73" stroke="#1A2E35" stroke-width="0.972" stroke-linecap="round" stroke-linejoin="round"/>
<path d="M150.043 152.168C150.043 156.348 151.525 159.73 153.357 159.73" stroke="#1A2E35" stroke-width="0.972" stroke-linecap="round" stroke-linejoin="round"/>
<path d="M147.62 150.738C149.257 155.878 145.639 158.558 145.514 158.558" stroke="#1A2E35" stroke-width="0.972" stroke-linecap="round" stroke-linejoin="round"/>
<path d="M157.455 157.965C160.486 157.094 158.342 151.872 158.398 151.872" stroke="#1A2E35" stroke-width="0.972" stroke-linecap="round" stroke-linejoin="round"/>
<path d="M112.429 164.355L131.913 166.751C142.352 167.408 151.345 159.447 151.999 148.971C152.653 138.495 144.721 129.47 134.281 128.814L114.673 126.091L112.429 164.355Z" fill="#FF644C" stroke="#1A2E35" stroke-width="0.972" stroke-linecap="round" stroke-linejoin="round"/>
<path d="M106.899 144.676C106.101 155.252 108.577 164.063 112.429 164.356C116.282 164.648 120.052 156.312 120.85 145.736C121.648 135.16 119.172 126.349 115.319 126.056C111.467 125.763 107.697 134.099 106.899 144.676Z" fill="#FF644C" stroke="#1A2E35" stroke-width="0.972" stroke-linecap="round" stroke-linejoin="round"/>
<path d="M129.924 150.533C131.244 152.075 133.559 152.251 135.096 150.926C136.632 149.602 136.807 147.278 135.487 145.736C134.168 144.194 131.852 144.018 130.316 145.343C128.779 146.668 128.604 148.991 129.924 150.533Z" fill="white" stroke="#1A2E35" stroke-width="0.972" stroke-linecap="round" stroke-linejoin="round"/>
<path d="M116.766 138.789C116.766 139.991 115.795 140.966 114.597 140.966C113.399 140.966 112.429 139.991 112.429 138.789C112.429 137.587 113.4 136.613 114.597 136.613C115.795 136.613 116.766 137.587 116.766 138.789Z" fill="#1A2E35" stroke="#1A2E35" stroke-width="0.972" stroke-linecap="round" stroke-linejoin="round"/>
<path d="M115.502 152.367C115.502 153.569 114.531 154.544 113.334 154.544C112.136 154.544 111.165 153.569 111.165 152.367C111.165 151.165 112.136 150.191 113.334 150.191C114.531 150.191 115.502 151.165 115.502 152.367Z" fill="#1A2E35" stroke="#1A2E35" stroke-width="0.972" stroke-linecap="round" stroke-linejoin="round"/>
<path d="M227.406 58.6574C227.515 60.6958 228.443 62.515 230.596 63.6081C232.41 64.529 234.562 64.4257 236.575 64.1361C238.587 63.8466 240.621 63.3915 242.633 63.6825C245.474 64.0932 247.881 65.9232 250.528 67.0382C253.585 68.3261 257.037 68.6501 260.278 67.9534C261.846 67.6164 263.432 67.0004 264.477 65.7808C265.84 64.1915 266.027 61.9205 266.958 60.044C268.35 57.2409 271.301 55.5411 274.281 54.6128C277.261 53.6842 280.404 53.3641 283.381 52.4274C286.026 51.5954 288.692 50.0993 289.823 47.5604C291.391 44.0442 289.297 39.7154 286.038 37.6801C282.779 35.6449 278.722 35.4196 274.891 35.6628C273.208 35.7695 271.466 35.948 269.875 35.3857C268.381 34.8574 267.187 33.7345 265.927 32.7702C263.143 30.6405 259.553 29.166 256.155 30.0107C250.406 31.44 248.095 38.3243 243.576 42.1665C240.548 44.7408 236.58 45.8749 233.185 47.9374C230.155 49.7781 227.192 54.6426 227.406 58.6574Z" fill="#1A2E35" stroke="#1A2E35" stroke-width="0.972" stroke-linecap="round" stroke-linejoin="round"/>
</svg>
